HIERARCHY
ROOT Hips
{
	OFFSET	0.00	0.00	0.00
	CHANNELS 6 Xposition Yposition Zposition Zrotation Xrotation Yrotation
	JOINT Chest
	{
		OFFSET	 0.00	 5.21	 0.00
		CHANNELS 3 Zrotation Xrotation Yrotation
		JOINT Neck
		{
			OFFSET	 0.00	 18.65	 0.00
			CHANNELS 3 Zrotation Xrotation Yrotation
			JOINT Head
			{
				OFFSET	 0.00	 5.45	 0.00
				CHANNELS 3 Zrotation Xrotation Yrotation
				End Site 
				{
					OFFSET	 0.00	 3.87	 0.00
				}
			}
		}
		JOINT LeftCollar
		{
			OFFSET	 1.12	 16.23	 1.87
			CHANNELS 3 Zrotation Xrotation Yrotation
			JOINT LeftUpArm
			{
				OFFSET	 5.54	 0.00	 0.00
				CHANNELS 3 Zrotation Xrotation Yrotation
				JOINT LeftLowArm
				{
					OFFSET	 0.00	-11.96	 0.00
					CHANNELS 3 Zrotation Xrotation Yrotation
					JOINT LeftHand
					{
						OFFSET	 0.00	-9.93	 0.00
						CHANNELS 3 Zrotation Xrotation Yrotation
						End Site 
						{
							OFFSET	 0.00	-7.00	 0.00
						}
					}
				}
			}
		}
		JOINT RightCollar
		{
			OFFSET	-1.12	 16.23	 1.87
			CHANNELS 3 Zrotation Xrotation Yrotation
			JOINT RightUpArm
			{
				OFFSET	-6.07	 0.00	 0.00
				CHANNELS 3 Zrotation Xrotation Yrotation
				JOINT RightLowArm
				{
					OFFSET	 0.00	-11.82	 0.00
					CHANNELS 3 Zrotation Xrotation Yrotation
					JOINT RightHand
					{
						OFFSET	 0.00	-10.65	 0.00
						CHANNELS 3 Zrotation Xrotation Yrotation
						End Site 
						{
							OFFSET	 0.00	-7.00	 0.00
						}
					}
				}
			}
		}
	}
	JOINT LeftUpLeg
	{
		OFFSET	 3.91	 0.00	 0.00
		CHANNELS 3 Zrotation Xrotation Yrotation
		JOINT LeftLowLeg
		{
			OFFSET	 0.00	-18.34	 0.00
			CHANNELS 3 Zrotation Xrotation Yrotation
			JOINT LeftFoot
			{
				OFFSET	 0.00	-17.37	 0.00
				CHANNELS 3 Zrotation Xrotation Yrotation
				End Site 
				{
					OFFSET	 0.00	-3.46	 0.00
				}
			}
		}
	}
	JOINT RightUpLeg
	{
		OFFSET	-3.91	 0.00	 0.00
		CHANNELS 3 Zrotation Xrotation Yrotation
		JOINT RightLowLeg
		{
			OFFSET	 0.00	-17.63	 0.00
			CHANNELS 3 Zrotation Xrotation Yrotation
			JOINT RightFoot
			{
				OFFSET	 0.00	-17.14	 0.00
				CHANNELS 3 Zrotation Xrotation Yrotation
				End Site 
				{
					OFFSET	 0.00	-3.75	 0.00
				}
			}
		}
	}
}
MOTION
Frames:			29
Frame Time: 0.033333
-6.34	 38.19	-54.71	-7.99	-8.58	-8.70	-3.54	 32.34	 5.37	 9.22	 23.07	-0.01	-6.98	-41.08	 0.71	 14.63	 0.00	 0.47	 86.97	-5.97	 5.75	-71.01	-79.92	-67.98	 0.71	-0.14	 0.00	 3.84	 0.00	-38.55	-93.26	-3.64	 48.52	-73.51	-55.24	-81.39	-1.48	 1.44	 0.04	 11.84	-14.68	 3.04	-1.57	 40.34	 15.96	 0.00	-17.92	 0.00	-4.91	 11.86	 1.01	 2.51	 40.43	-9.54	 0.00	-16.16	 0.00	
-6.07	 38.31	-53.89	-7.95	-8.49	-9.62	-6.37	 32.58	 6.22	 9.31	 22.41	-0.01	-7.09	-41.07	 0.54	 13.42	 0.00	-0.59	 85.30	-5.24	 3.32	-70.00	-78.73	-67.06	 0.71	-0.20	 0.00	-0.77	 0.00	-37.78	-93.05	-2.32	 51.34	-75.28	-56.44	-82.59	-1.47	 1.34	 0.03	 11.53	-13.17	 2.66	-2.89	 40.42	 17.71	 0.00	-19.21	 0.00	-5.22	 7.38	 0.67	 2.36	 48.97	-8.97	 0.00	-12.30	 0.00	
-5.87	 38.34	-53.08	-7.93	-8.72	-10.45	-9.06	 32.99	 7.03	 9.65	 21.83	-0.01	-7.04	-41.08	 0.61	 11.83	 0.00	-1.14	 83.78	-4.20	 0.50	-70.05	-79.06	-67.12	 0.71	-0.22	 0.00	-4.68	 0.00	-37.57	-93.73	-1.94	 51.44	-75.54	-59.04	-82.34	-1.46	 1.29	 0.03	 11.40	-11.43	 2.29	-4.58	 40.48	 19.46	 0.00	-20.53	 0.00	-5.44	 3.02	 0.29	 2.52	 57.74	-7.07	 0.00	-10.46	 0.00	
-5.70	 38.30	-52.27	-7.95	-9.27	-11.10	-11.53	 33.62	 7.86	 10.25	 21.24	-0.01	-6.83	-41.11	 0.94	 10.32	 0.00	-1.22	 81.67	-3.15	-2.66	-74.48	-80.76	-71.43	 0.71	-0.16	 0.00	-7.66	 0.00	-38.21	-95.02	-2.71	 47.47	-72.48	-63.63	-79.01	-1.46	 1.30	 0.03	 11.42	-9.47	 1.90	-6.50	 40.57	 21.07	 0.00	-21.87	 0.00	-5.49	-0.91	-0.09	 3.43	 66.09	-5.69	 0.00	-10.55	 0.00	
-5.57	 38.23	-51.47	-8.05	-9.98	-11.50	-13.63	 34.36	 8.75	 11.04	 20.54	-0.01	-6.50	-41.15	 1.44	 8.81	 0.00	-1.10	 79.02	-2.01	-5.91	-85.76	-82.90	-82.62	 0.71	-0.05	 0.00	-9.33	 0.00	-39.36	-96.85	-3.99	 38.42	-62.83	-70.67	-69.04	-1.47	 1.37	 0.04	 11.48	-7.50	 1.52	-8.25	 40.88	 22.29	 0.00	-23.23	 0.00	-5.35	-4.31	-0.40	 6.66	 73.12	-7.84	 0.00	-11.84	 0.00	
-5.45	 38.18	-50.67	-8.15	-10.65	-11.66	-15.35	 35.03	 9.74	 11.86	 19.72	-0.01	-6.14	-41.19	 1.98	 7.18	 0.00	-1.40	 76.16	-0.31	-8.78	-101.80	-84.43	-98.68	 0.71	 0.04	 0.00	-9.88	 0.00	-40.87	-98.83	-5.36	 24.52	-30.96	-78.30	-36.54	-1.48	 1.45	 0.04	 11.42	-5.70	 1.15	-9.60	 41.30	 23.19	 0.00	-24.59	 0.00	-5.06	-7.39	-0.65	 13.91	 78.24	-14.75	 0.00	-13.56	 0.00	
-5.33	 38.15	-49.86	-8.13	-11.18	-11.67	-16.82	 35.49	 10.95	 12.55	 18.83	-0.01	-5.83	-41.23	 2.45	 5.55	 0.00	-2.26	 73.17	 2.07	-10.96	-114.21	-85.29	-111.21	 0.71	 0.08	 0.00	-9.73	 0.00	-42.75	-100.61	-6.66	 8.32	 29.51	-77.18	 24.85	-1.48	 1.51	 0.04	 11.12	-4.08	 0.80	-10.52	 41.61	 23.99	 0.00	-25.80	 0.00	-4.70	-10.32	-0.84	 24.78	 81.23	-24.92	 0.00	-15.19	 0.00	
-5.23	 38.13	-49.04	-8.02	-11.68	-11.75	-18.19	 35.82	 12.54	 13.01	 17.96	-0.01	-5.61	-41.25	 2.78	 4.06	 0.00	-3.36	 69.99	 4.76	-12.28	-113.87	-85.94	-111.08	 0.71	 0.05	 0.00	-9.33	 0.00	-44.57	-101.79	-7.52	-4.35	 50.84	-71.24	 46.75	-1.48	 1.51	 0.04	 10.61	-2.31	 0.43	-11.11	 41.56	 24.75	 0.00	-26.70	 0.00	-4.44	-12.93	-1.00	 33.76	 81.96	-32.69	 0.00	-16.53	 0.00	
-5.16	 38.12	-48.20	-7.93	-12.19	-11.88	-19.32	 36.08	 14.34	 13.18	 17.22	-0.01	-5.51	-41.27	 2.94	 2.64	 0.00	-4.36	 66.76	 7.41	-12.72	-96.48	-86.24	-93.92	 0.71	-0.03	 0.00	-9.07	 0.00	-45.95	-101.94	-7.89	-10.00	 51.75	-70.43	 47.43	-1.48	 1.47	 0.04	 10.10	-0.21	 0.04	-11.51	 41.11	 25.45	 0.00	-27.37	 0.00	-4.35	-15.04	-1.13	 35.48	 80.34	-33.20	 0.00	-17.43	 0.00	
-5.13	 38.13	-47.36	-7.69	-12.49	-11.83	-20.11	 36.10	 15.81	 13.07	 16.74	-0.01	-5.51	-41.27	 2.94	 1.21	 0.00	-5.29	 63.72	 10.08	-12.31	-71.30	-85.44	-68.97	 0.72	-0.14	 0.00	-9.11	 0.00	-46.89	-101.04	-8.11	-8.99	 36.58	-74.56	 31.27	-1.48	 1.43	 0.04	 9.47	 1.72	-0.29	-11.64	 40.52	 25.79	 0.00	-27.98	 0.00	-4.61	-16.87	-1.34	 32.52	 76.37	-29.49	 0.00	-17.82	 0.00	
-5.10	 38.14	-46.54	-7.05	-12.34	-11.36	-20.51	 35.71	 16.46	 12.77	 16.58	-0.01	-5.63	-41.26	 2.76	-0.20	 0.00	-6.03	 61.19	 12.77	-11.37	-59.99	-83.63	-57.90	 0.72	-0.26	 0.00	-9.37	 0.00	-47.49	-99.63	-8.53	-4.48	-1.65	-76.52	-8.36	-1.48	 1.44	 0.04	 8.59	 2.93	-0.44	-11.46	 40.08	 25.58	 0.00	-28.53	 0.00	-5.33	-18.62	-1.70	 28.79	 70.31	-25.67	 0.00	-17.98	 0.00	
-5.09	 38.14	-45.73	-6.07	-11.81	-10.43	-20.50	 35.03	 16.16	 12.38	 16.79	-0.01	-5.82	-41.23	 2.47	-1.46	 0.00	-6.18	 59.53	 15.30	-10.48	-62.89	-81.82	-61.03	 0.72	-0.30	 0.00	-9.85	 0.00	-47.57	-98.03	-9.01	 1.01	-33.90	-71.22	-42.37	-1.48	 1.52	 0.04	 7.55	 3.58	-0.47	-10.90	 39.62	 24.79	 0.00	-28.92	 0.00	-6.28	-20.06	-2.16	 25.12	 62.54	-22.77	 0.00	-17.90	 0.00	
-5.11	 38.12	-44.90	-4.90	-11.17	-9.11	-20.14	 34.30	 15.06	 12.05	 17.33	-0.01	-6.04	-41.21	 2.13	-2.38	 0.00	-5.72	 58.78	 17.59	-10.03	-72.37	-80.49	-70.66	 0.71	-0.26	 0.00	-10.64	 0.00	-46.75	-95.96	-9.25	 7.42	-48.70	-61.90	-59.54	-1.48	 1.64	 0.04	 6.47	 4.19	-0.48	-9.99	 38.77	 23.47	 0.00	-29.10	 0.00	-7.14	-20.89	-2.56	 21.39	 53.43	-21.04	 0.00	-17.44	 0.00	
-5.18	 38.07	-44.04	-3.55	-10.55	-7.62	-19.70	 33.55	 13.68	 11.96	 18.14	-0.01	-6.21	-41.19	 1.88	-2.97	 0.00	-5.10	 58.87	 19.65	-10.35	-83.61	-80.12	-81.87	 0.71	-0.17	 0.00	-11.68	 0.00	-44.85	-93.13	-8.91	 14.68	-55.99	-50.78	-69.88	-1.49	 1.74	 0.05	 5.36	 5.04	-0.47	-9.03	 37.60	 21.96	 0.00	-29.20	 0.00	-7.79	-21.12	-2.82	 17.60	 43.74	-20.55	 0.00	-16.23	 0.00	
-5.29	 38.00	-43.16	-1.96	-10.01	-6.01	-19.34	 32.77	 12.59	 12.22	 19.16	-0.01	-6.31	-41.18	 1.73	-3.57	 0.00	-4.64	 60.04	 21.18	-11.43	-95.57	-80.53	-93.66	 0.71	-0.05	 0.00	-12.44	 0.00	-42.08	-90.17	-7.50	 20.83	-59.92	-40.24	-76.71	-1.49	 1.78	 0.05	 4.16	 6.04	-0.44	-8.23	 36.48	 20.31	 0.00	-29.45	 0.00	-8.41	-20.95	-3.02	 14.05	 34.53	-20.75	 0.00	-13.69	 0.00	
-5.41	 37.88	-42.24	-0.08	-9.45	-4.10	-18.95	 31.99	 11.99	 12.47	 20.33	-0.01	-6.38	-41.17	 1.62	-4.34	 0.00	-4.34	 62.43	 21.54	-13.39	-107.00	-81.46	-104.90	 0.71	 0.04	 0.00	-12.23	 0.00	-39.54	-88.15	-5.39	 23.87	-62.85	-32.72	-80.95	-1.49	 1.71	 0.04	 2.81	 7.03	-0.34	-7.29	 35.64	 18.18	 0.00	-29.87	 0.00	-9.24	-20.57	-3.27	 10.90	 27.08	-20.38	 0.00	-9.85	 0.00	
-5.56	 37.72	-41.23	 1.92	-8.86	-1.77	-18.27	 31.29	 11.88	 12.08	 21.66	-0.01	-6.38	-41.17	 1.62	-4.88	 0.00	-4.40	 65.26	 20.62	-16.01	-116.73	-83.04	-114.53	 0.71	 0.07	 0.00	-11.04	 0.00	-39.02	-87.62	-4.06	 22.95	-65.59	-30.28	-82.64	-1.48	 1.55	 0.04	 1.38	 8.06	-0.19	-5.79	 35.07	 15.40	 0.00	-30.41	 0.00	-10.31	-20.23	-3.60	 8.34	 23.01	-18.54	 0.00	-5.50	 0.00	
-5.74	 37.55	-40.12	 3.75	-8.58	 0.98	-16.98	 30.99	 11.89	 10.70	 23.03	-0.01	-6.28	-41.18	 1.78	-4.67	 0.00	-5.42	 67.37	 19.70	-18.60	-129.72	-85.45	-127.47	 0.71	 0.07	 0.00	-9.73	 0.00	-40.63	-88.02	-4.44	 19.18	-67.14	-32.21	-82.26	-1.47	 1.42	 0.04	 0.20	 9.44	-0.03	-3.74	 34.78	 12.06	 0.00	-31.08	 0.00	-11.44	-19.86	-3.93	 6.62	 23.02	-16.29	 0.00	-2.11	 0.00	
-5.97	 37.45	-38.92	 5.22	-8.99	 4.08	-14.94	 31.50	 11.22	 8.50	 23.97	-0.01	-6.15	-41.20	 1.97	-2.42	 0.00	-6.86	 67.13	 19.44	-20.65	 179.33	-87.78	-178.31	 0.71	 0.04	 0.00	-9.67	 0.00	-42.25	-87.71	-5.62	 15.53	-67.11	-35.40	-81.04	-1.48	 1.37	 0.04	-0.29	 11.45	 0.06	-1.42	 34.72	 8.25	 0.00	-31.64	 0.00	-12.47	-19.00	-4.12	 6.09	 26.09	-15.85	 0.00	-1.08	 0.00	
-6.24	 37.48	-37.69	 6.22	-9.89	 7.12	-12.31	 32.68	 9.06	 6.38	 24.14	-0.01	-6.08	-41.21	 2.07	 1.43	 0.00	-6.71	 65.12	 19.04	-22.23	 107.01	-85.71	 109.59	 0.72	-0.01	 0.00	-10.29	 0.00	-41.70	-86.36	-6.06	 13.03	-66.76	-37.93	-80.15	-1.49	 1.34	 0.03	 0.16	 13.80	-0.04	 0.55	 34.86	 4.50	 0.00	-31.68	 0.00	-13.19	-17.52	-4.04	 6.82	 30.13	-17.76	 0.00	-2.35	 0.00	
-6.52	 37.58	-36.53	 6.77	-10.34	 9.44	-9.50	 33.67	 5.30	 5.15	 23.34	-0.01	-6.23	-41.19	 1.85	 3.73	 0.00	-2.73	 64.75	 16.97	-24.24	 89.23	-81.92	 92.19	 0.72	-0.07	 0.00	-8.79	 0.00	-39.48	-85.89	-6.44	 9.76	-67.17	-40.00	-79.94	-1.49	 1.27	 0.03	 1.21	 15.27	-0.32	 1.81	 35.34	 1.44	 0.00	-30.96	 0.00	-13.47	-16.36	-3.86	 8.03	 33.61	-20.27	 0.00	-4.40	 0.00	
-6.80	 37.68	-35.49	 7.03	-9.84	 11.00	-6.67	 34.05	 0.22	 5.14	 21.65	-0.01	-6.71	-41.11	 1.12	 5.05	 0.00	 5.47	 65.37	 12.47	-26.64	 80.68	-78.62	 84.25	 0.72	-0.16	 0.00	-6.95	 0.00	-37.06	-85.34	-8.03	 6.32	-67.41	-42.14	-79.60	-1.49	 1.21	 0.03	 2.33	 15.14	-0.61	 2.55	 36.45	-1.05	 0.00	-29.37	 0.00	-13.58	-15.97	-3.80	 9.14	 35.95	-22.32	 0.00	-6.14	 0.00	
-7.08	 37.76	-34.50	 7.12	-8.92	 12.33	-3.42	 34.11	-5.58	 6.07	 19.57	-0.01	-7.47	-40.99	-0.04	 6.17	 0.00	 14.64	 66.04	 7.49	-28.34	 74.18	-76.44	 78.64	 0.72	-0.27	 0.00	-6.74	 0.00	-35.35	-83.34	-11.06	 4.03	-66.28	-43.25	-78.39	-1.50	 1.25	 0.03	 3.49	 13.84	-0.84	 3.26	 38.51	-3.37	 0.00	-26.86	 0.00	-13.60	-15.50	-3.70	 10.31	 36.91	-24.25	 0.00	-7.54	 0.00	
-7.37	 37.86	-33.55	 6.98	-8.20	 13.63	 0.37	 34.09	-10.74	 7.35	 17.53	-0.01	-8.25	-40.86	-1.23	 6.91	 0.00	 21.41	 66.99	 3.82	-28.30	 68.00	-75.54	 73.39	 0.72	-0.37	 0.00	-7.20	 0.00	-34.70	-80.59	-14.78	 2.42	-64.38	-42.78	-76.80	-1.53	 1.38	 0.04	 4.80	 11.94	-1.00	 4.06	 41.63	-5.37	 0.00	-23.58	 0.00	-13.33	-14.40	-3.37	 11.75	 36.84	-26.27	 0.00	-9.00	 0.00	
-7.65	 37.96	-32.65	 6.63	-7.77	 14.75	 4.32	 34.03	-13.96	 8.49	 15.68	-0.01	-8.83	-40.76	-2.12	 8.05	 0.00	 25.06	 67.73	 1.11	-26.45	 60.36	-75.97	 66.48	 0.72	-0.46	 0.01	-7.56	 0.00	-35.43	-77.98	-18.17	 0.67	-62.83	-42.23	-75.41	-1.56	 1.48	 0.04	 6.20	 9.60	-1.04	 4.75	 45.76	-6.62	 0.00	-19.94	 0.00	-12.68	-12.94	-2.88	 13.14	 36.30	-28.09	 0.00	-10.51	 0.00	
-7.90	 38.03	-31.82	 6.20	-7.59	 15.59	 7.80	 34.00	-14.67	 9.29	 14.05	-0.01	-9.11	-40.71	-2.55	 9.24	 0.00	 26.87	 68.94	-2.35	-22.95	 48.60	-77.58	 55.02	 0.72	-0.52	 0.01	-5.98	 0.00	-37.41	-77.49	-20.65	-2.56	-61.65	-43.40	-73.92	-1.56	 1.52	 0.04	 7.38	 6.93	-0.90	 5.36	 50.61	-7.06	 0.00	-16.73	 0.00	-11.78	-11.38	-2.36	 14.16	 35.55	-29.54	 0.00	-11.99	 0.00	
-8.10	 38.08	-31.06	 5.87	-7.43	 16.14	 10.41	 34.00	-13.23	 9.67	 12.65	-0.01	-9.09	-40.72	-2.52	 10.97	 0.00	 27.91	 70.27	-7.09	-18.13	 28.71	-79.52	 34.95	 0.72	-0.57	 0.01	-3.17	 0.00	-39.76	-78.34	-21.77	-7.03	-59.96	-46.09	-71.79	-1.57	 1.53	 0.04	 8.06	 3.94	-0.56	 6.07	 55.90	-7.24	 0.00	-14.85	 0.00	-11.03	-9.94	-1.93	 15.09	 34.70	-30.90	 0.00	-13.50	 0.00	
-8.25	 38.12	-30.37	 5.66	-7.13	 16.47	 12.30	 33.83	-10.54	 9.61	 11.45	-0.01	-8.93	-40.76	-2.27	 12.75	 0.00	 28.08	 71.76	-11.75	-12.48	 3.28	-80.40	 9.03	 0.72	-0.57	 0.01	 0.27	 0.00	-41.57	-79.66	-21.19	-12.01	-57.81	-49.63	-69.12	-1.57	 1.53	 0.04	 8.16	 0.55	-0.08	 7.00	 61.47	-7.40	 0.00	-14.69	 0.00	-10.69	-8.77	-1.65	 16.20	 33.78	-32.18	 0.00	-14.89	 0.00	
-8.33	 38.16	-29.74	 5.50	-6.86	 16.51	 13.84	 33.56	-7.58	 9.24	 10.44	-0.01	-8.81	-40.78	-2.08	 14.54	 0.00	 27.13	 73.08	-14.66	-6.90	-18.75	-80.50	-13.54	 0.72	-0.50	 0.01	 3.48	 0.00	-41.99	-80.63	-18.53	-16.84	-55.05	-54.27	-65.67	-1.56	 1.48	 0.04	 7.81	-2.93	 0.40	 7.97	 66.72	-7.21	 0.00	-15.75	 0.00	-10.58	-7.65	-1.42	 17.01	 32.92	-32.53	 0.00	-15.69	 0.00	
